<?xml version="1.0" encoding="utf-8"?><!-- Uploaded to: SVG Repo, www.svgrepo.com, Generator: SVG Repo Mixer Tools -->
<svg width="800px" height="800px" viewBox="0 0 24 24" fill="none" xmlns="http://www.w3.org/2000/svg">
<path d="M3.35288 15.0496L2.6227 15.2209L3.35288 15.0496ZM3.35288 8.95043L2.6227 8.77915L3.35288 8.95043ZM20.6471 8.95044L19.9169 9.12171L20.6471 8.95044ZM20.6471 15.0496L19.9169 14.8783L20.6471 15.0496ZM15.0496 20.6471L14.8783 19.9169L15.0496 20.6471ZM8.95044 20.6471L8.77916 21.3773L8.95044 20.6471ZM8.95043 3.35288L8.77916 2.6227L8.95043 3.35288ZM15.0496 3.35288L14.8783 4.08306L15.0496 3.35288ZM4.08306 14.8783C3.63898 12.9851 3.63898 11.0149 4.08306 9.12171L2.6227 8.77915C2.12577 10.8976 2.12577 13.1024 2.6227 15.2209L4.08306 14.8783ZM19.9169 9.12171C20.361 11.0149 20.361 12.9851 19.9169 14.8783L21.3773 15.2208C21.8742 13.1024 21.8742 10.8976 21.3773 8.77916L19.9169 9.12171ZM14.8783 19.9169C12.9851 20.361 11.0149 20.361 9.12171 19.9169L8.77916 21.3773C10.8976 21.8742 13.1024 21.8742 15.2208 21.3773L14.8783 19.9169ZM9.12171 4.08306C11.0149 3.63898 12.9851 3.63898 14.8783 4.08306L15.2208 2.6227C13.1024 2.12577 10.8976 2.12577 8.77916 2.6227L9.12171 4.08306ZM9.12171 19.9169C6.62161 19.3305 4.6695 17.3784 4.08306 14.8783L2.6227 15.2209C3.33924 18.2756 5.72441 20.6608 8.77916 21.3773L9.12171 19.9169ZM15.2208 21.3773C18.2756 20.6608 20.6608 18.2756 21.3773 15.2208L19.9169 14.8783C19.3305 17.3784 17.3784 19.3305 14.8783 19.9169L15.2208 21.3773ZM14.8783 4.08306C17.3784 4.6695 19.3305 6.62161 19.9169 9.12171L21.3773 8.77916C20.6608 5.72441 18.2756 3.33924 15.2208 2.6227L14.8783 4.08306ZM8.77916 2.6227C5.72441 3.33924 3.33924 5.72441 2.6227 8.77915L4.08306 9.12171C4.6695 6.6216 6.62161 4.6695 9.12171 4.08306L8.77916 2.6227Z" fill="#363853"/>
<path d="M8.12915 15.1208C8.12915 15.535 8.46494 15.8708 8.87915 15.8708C9.29336 15.8708 9.62915 15.535 9.62915 15.1208H8.12915ZM9.62915 10.9597C9.62915 10.5455 9.29336 10.2097 8.87915 10.2097C8.46494 10.2097 8.12915 10.5455 8.12915 10.9597H9.62915ZM14.3708 15.1208C14.3708 15.535 14.7066 15.8708 15.1208 15.8708C15.535 15.8708 15.8708 15.535 15.8708 15.1208H14.3708ZM15.8708 12C15.8708 11.5858 15.535 11.25 15.1208 11.25C14.7066 11.25 14.3708 11.5858 14.3708 12H15.8708ZM11.25 14.0805C11.25 14.4947 11.5858 14.8305 12 14.8305C12.4142 14.8305 12.75 14.4947 12.75 14.0805H11.25ZM12.75 8.87915C12.75 8.46494 12.4142 8.12915 12 8.12915C11.5858 8.12915 11.25 8.46494 11.25 8.87915H12.75ZM9.62915 15.1208V10.9597H8.12915V15.1208H9.62915ZM15.8708 15.1208V12H14.3708V15.1208H15.8708ZM12.75 14.0805V8.87915H11.25V14.0805H12.75Z" fill="#0095FF"/>
</svg>