<?xml version="1.0" encoding="utf-8"?>
<!-- Uploaded to: SVG Repo, www.svgrepo.com, Generator: SVG Repo Mixer Tools -->
<svg width="800px" height="800px" viewBox="-83.67 0 382.224 382.224" xmlns="http://www.w3.org/2000/svg"><defs><style>.a{fill:#ffffff;}.b{fill:#7a7473;}.c{fill:#85807f;}.d{fill:#211715;}.e{fill:#febe69;}</style></defs><path class="a" d="M171.279,86.142s1.111-48.03-50.889-48.03-46.429,41.9-46.429,41.9a7.553,7.553,0,0,0-5.356-2.275,7.012,7.012,0,0,0-6.471,3.177c-2.327,3.6-2.584,10.438-1.363,14.74.864,3.046,2.3,7.711,6.145,11.2a8.173,8.173,0,0,0,6.854,2.091,57.47,57.47,0,0,0,9.85,21.1,52.078,52.078,0,0,0,7.48,8.16h38.04v19.3c6.09-4.38,13.06-9.42,13.63-9.84v-3.629c11.3-5.816,20.634-20.206,22.44-24.434a48.928,48.928,0,0,0,2.513-5.881l.61.135a8.33,8.33,0,0,0,6.511-1.526c4.181-3.081,6.079-7.577,7.248-10.52,1.65-4.156,2.087-10.985.137-14.8a7.017,7.017,0,0,0-6.116-3.817,7.566,7.566,0,0,0-5.56,1.721"/><path class="b" d="M212.318,217c-.454-11.911-5.509-24.155-14.145-32.372a62.351,62.351,0,0,0-9.472-7.584s-1.182-.752-1.909-1.22c-5.169-3-10.788-5.8-16.577-8.517l-7.647-2.992-1.475-.579c-3.094-2.566-6.185-4.85-8.559-6.515-6.046,22.412-13.72,46.328-21.809,68.028-.562,1.506-1.085,2.91-1.584,4.248V357.093h61.416q-4.248-24.689-8.495-49.376a203.708,203.708,0,0,0,13.425-21.542C207.056,265.14,213.193,239.987,212.318,217Z"/><path class="c" d="M62.556,47.742c-.2,1.191-.369,2.274-.486,3.152-1.428,10.731.595,19.445,3.526,27.288a8.7,8.7,0,0,1,3.009-.442,7.553,7.553,0,0,1,5.356,2.275l2.257,2.4.143-1A80.131,80.131,0,0,1,78.548,70.43c1.057-4,2.347-8.125,6.172-11.291l8.2-5.159c2.108-.014,4.59-.207,6.252-.067,15.061,1.266,30.558-.813,42.514-5.7l9.014,5.881a62.808,62.808,0,0,1,13.555,18.917c1.075,2.3,3.413,10.03,5.212,13.136a7.286,7.286,0,0,1,6.648-2.944,8.653,8.653,0,0,1,3.067.8c4.8-19.665,6.208-31.635-.682-47.5a46.268,46.268,0,0,0-5.249-8.658A37.481,37.481,0,0,0,159.487,17.31l-10.225-5.081C139.313,1.491,120.39.53,107.116,4.689c-12.449,3.9-19.377,9.944-27.6,15.5a25.682,25.682,0,0,1-9.784,4.329L66.214,34.959C64.638,37.436,63.315,43.33,62.556,47.742Z"/><path class="d" d="M111.358,122.813a19.629,19.629,0,0,0,9.2,2.6c3.087.157,6.682-.193,9.294-2.024a2.463,2.463,0,0,0,.861-3.283,2.42,2.42,0,0,0-3.284-.861,8.648,8.648,0,0,1-1.025.6c-.08.04-.457.207-.091.047s-.044.015-.129.045c-.292.1-.586.2-.885.282-.344.095-.693.174-1.044.239-.056.011-.625.107-.324.061s-.312.035-.37.04a20.477,20.477,0,0,1-3,.056,15.046,15.046,0,0,1-4.579-.855c-.166-.057-.33-.123-.5-.183-.424-.152.3.155.052.025-.232-.12-.475-.219-.707-.338-.357-.184-.7-.386-1.047-.591a2.4,2.4,0,1,0-2.423,4.145Z"/><path class="d" d="M120.672,101c.274,1.31.517,2.632.7,3.958l-.085-.638c.056.426.1.851.164,1.276l-.086-.638a3.539,3.539,0,0,1,.024.829l.086-.638a1.607,1.607,0,0,1-.1.373l.242-.574a1.31,1.31,0,0,1-.115.186l.375-.486a.716.716,0,0,1-.1.1l.485-.375a1.856,1.856,0,0,1-.338.18l.573-.242a2.944,2.944,0,0,1-.65.186l.638-.085a2.475,2.475,0,0,1-.6,0l.638.086c-.263-.04-.516-.12-.777-.169a2.578,2.578,0,0,0-1.849.242,2.4,2.4,0,0,0-.861,3.284,2.361,2.361,0,0,0,1.434,1.1c.5.093.964.214,1.483.263a4.419,4.419,0,0,0,2.109-.4,3.3,3.3,0,0,0,2.008-2.2,5.657,5.657,0,0,0,0-2.378l.086.638a51.093,51.093,0,0,0-.851-5.155,2.4,2.4,0,0,0-2.952-1.676A2.457,2.457,0,0,0,120.672,101Z"/><path class="d" d="M95.852,86.038c-.932,2.558-.714,8.563,4.184,9.322,6.509.292,7.223-6.919,5.2-10.429C103.588,82.058,98.373,80.633,95.852,86.038Z"/><path class="d" d="M148.165,88.7c.668,2.639-.157,8.591-5.106,8.85-6.506-.37-6.485-7.616-4.122-10.9C140.872,83.951,146.2,83.061,148.165,88.7Z"/><path class="d" d="M75.658,78.318A10.542,10.542,0,0,0,64.15,76.192c-2.967,1.275-4.708,3.963-5.6,6.975-2.025,6.809-.6,14.683,2.961,20.748,2.453,4.182,6.551,7.961,11.731,7.52a2.463,2.463,0,0,0,2.4-2.4,2.418,2.418,0,0,0-2.4-2.4c-4.22.359-6.92-3.507-8.518-6.916a23.357,23.357,0,0,1-2.26-9.117,20.19,20.19,0,0,1,.533-5.5,11.81,11.81,0,0,1,.628-1.92,7.892,7.892,0,0,1,.584-1.058c.064-.1.529-.67.167-.251a4.075,4.075,0,0,1,1.146-1.023,4.972,4.972,0,0,1,1.857-.661,5.59,5.59,0,0,1,4.888,1.519c2.186,2.189,5.581-1.2,3.394-3.394Z"/><path class="d" d="M172.25,86.616a5.5,5.5,0,0,1,4.811-.84,6.261,6.261,0,0,1,1.737.758,5.877,5.877,0,0,1,.563.519q.163.169.315.351-.217-.29.015.034c1.729,2.578,1.642,6.34,1.235,9.3a23.6,23.6,0,0,1-3.309,8.929c-1.734,2.894-4.845,6.6-8.646,5.887a2.465,2.465,0,0,0-2.953,1.676,2.422,2.422,0,0,0,1.677,2.952c8.713,1.644,14.212-6.979,16.824-14.016a24.388,24.388,0,0,0,1.257-11.015c-.374-3.207-1.386-6.338-4.04-8.361a10.519,10.519,0,0,0-12.88.437,2.418,2.418,0,0,0,0,3.394,2.454,2.454,0,0,0,3.394,0Z"/><path class="d" d="M166.5,109.591a48.884,48.884,0,0,1-7.094,15.18,58.319,58.319,0,0,1-13.622,14.588,24.76,24.76,0,0,1-10.082,4.6,2.423,2.423,0,0,0-1.677,2.953,2.454,2.454,0,0,0,2.953,1.676c7.413-1.32,13.79-6.455,18.845-11.771a65.589,65.589,0,0,0,10.937-14.895,54.375,54.375,0,0,0,4.368-11.052c.774-2.993-3.854-4.269-4.628-1.276Z"/><path class="d" d="M70.686,105.83c2.236,12.918,8.789,25.419,18.717,34.079,2.319,2.022,5.727-1.359,3.394-3.394a54.832,54.832,0,0,1-17.483-31.961,2.419,2.419,0,0,0-2.952-1.676,2.454,2.454,0,0,0-1.676,2.952Z"/><path class="d" d="M158.276,19.383a37.832,37.832,0,0,1,10.62,7.188,37.1,37.1,0,0,1,6.87,9.744,49.5,49.5,0,0,1,5.019,24.039,90.334,90.334,0,0,1-2.095,15.069c-.632,3.014,3.994,4.3,4.629,1.276,1.936-9.23,3.12-18.6,1.472-27.973-1.55-8.819-5.286-17.751-11.39-24.4a40.593,40.593,0,0,0-12.7-9.089,2.469,2.469,0,0,0-3.284.861,2.421,2.421,0,0,0,.861,3.284Z"/><path class="d" d="M150.959,10.532C143.023,2.084,130.573-.559,119.386.1,107.012.819,95.837,5.907,85.769,12.9c-2.605,1.808-5.161,3.689-7.8,5.446a27.584,27.584,0,0,1-8.878,3.864c-2.994.755-1.725,5.385,1.276,4.629a30.493,30.493,0,0,0,8.171-3.174c2.353-1.39,4.564-3.031,6.793-4.608a99.531,99.531,0,0,1,14.589-9.006c10.021-4.763,21.6-6.656,32.511-4.2,5.7,1.281,11.094,3.781,15.135,8.082,2.119,2.257,5.509-1.142,3.394-3.394Z"/><path class="d" d="M64.142,33.748c-1.616,2.63-2.349,5.877-3.015,8.855A84.363,84.363,0,0,0,59.45,52.8,57.466,57.466,0,0,0,62.8,77.5a2.459,2.459,0,0,0,2.952,1.676,2.42,2.42,0,0,0,1.676-2.952,54.129,54.129,0,0,1-3.222-22.949,72.35,72.35,0,0,1,1.474-9.051c.341-1.559.723-3.113,1.193-4.639a13.378,13.378,0,0,1,1.414-3.412c1.622-2.64-2.529-5.053-4.145-2.423Z"/><path class="d" d="M141.046,45.894a82.787,82.787,0,0,1-23.035,5.49,104.148,104.148,0,0,1-12.834.457c-2.123-.055-4.231-.238-6.35-.352-1.966-.106-3.943.068-5.909.091-3.087.035-3.1,4.835,0,4.8,2.023-.024,4.059-.208,6.08-.079,2.215.141,4.421.3,6.642.351a104.17,104.17,0,0,0,12.822-.513,86.909,86.909,0,0,0,23.86-5.616A2.477,2.477,0,0,0,144,47.57a2.417,2.417,0,0,0-2.953-1.676Z"/><path class="d" d="M83.023,57.442c-3.493,2.965-5.334,7.071-6.533,11.4A95.484,95.484,0,0,0,74.046,80.78a2.481,2.481,0,0,0,1.677,2.953,2.418,2.418,0,0,0,2.952-1.677,96.383,96.383,0,0,1,2.271-11.3c1.024-3.819,2.382-7.3,5.471-9.917a2.421,2.421,0,0,0,0-3.394,2.449,2.449,0,0,0-3.394,0Z"/><path class="d" d="M149,55.786a62.383,62.383,0,0,1,11.427,14.955,38.777,38.777,0,0,1,2.84,6.358c.974,2.719,1.937,5.437,3.072,8.094a2.414,2.414,0,0,0,3.283.861,2.462,2.462,0,0,0,.861-3.284c-2.113-4.948-3.5-10.072-6.108-14.812A66.875,66.875,0,0,0,152.4,52.392c-2.213-2.158-5.611,1.233-3.394,3.394Z"/><path class="a" d="M149.646,156.754c-2.1-2.65-4.727-6.465-6.877-9.084-.572.425-7.542,5.465-13.628,9.842V229.5c.5-1.335,1.023-2.745,1.584-4.248,7.426-19.923,14.5-41.714,20.292-62.494A7.207,7.207,0,0,0,149.646,156.754Z"/><path class="d" d="M131.454,230.12c6.975-18.576,13.326-37.374,18.924-56.413q2.324-7.9,4.466-15.847l-3.525,1.434a117.493,117.493,0,0,1,11.294,8.929,59.392,59.392,0,0,1,5.32,5.382,25.154,25.154,0,0,1,1.949,2.567c.336.513,1.237,1.684,1.2,2.2l.328-1.211q.582-.433.051-.111l-.573.3q-.585.3-1.171.609-1.309.684-2.618,1.371-2.583,1.355-5.168,2.7a2.422,2.422,0,0,0-.486,3.769c3.542,3.606,7.15,7.153,10.559,10.887q.52.57,1.031,1.148c.159.181.637.566.7.826.17.657-1.167,2.223-1.5,2.772q-1.911,3.115-3.893,6.185c-6.174,9.593-12.688,18.975-19.434,28.174-3.474,4.739-7.017,9.429-10.7,14a2.472,2.472,0,0,0,0,3.394,2.418,2.418,0,0,0,3.394,0c7.393-9.173,14.321-18.729,21.025-28.413q5.047-7.29,9.864-14.736,2.021-3.139,3.976-6.321a15.757,15.757,0,0,0,1.882-3.449,5.415,5.415,0,0,0-1.367-5.2c-3.741-4.48-8.054-8.51-12.14-12.669l-.486,3.769c2.133-1.106,4.258-2.227,6.386-3.342,1.9-1,4.989-1.915,5.143-4.46.1-1.618-.989-3.3-1.853-4.622a36.146,36.146,0,0,0-3.379-4.313c-4.921-5.478-10.9-10.065-16.907-14.287a2.417,2.417,0,0,0-3.525,1.434q-7.8,28.736-17.739,56.83c-1.829,5.163-3.726,10.3-5.651,15.43A2.419,2.419,0,0,0,128.5,231.8a2.452,2.452,0,0,0,2.952-1.676Z"/><path class="d" d="M127.068,177.923c1.453,2.144,2.877,4.31,4.35,6.44a2.449,2.449,0,0,0,3.283.861c5.275-3.143,9.293-8.573,12.957-13.373,1.517-1.987,2.991-4.013,4.38-6.092a14.952,14.952,0,0,0,.934-1.466,8.121,8.121,0,0,0-.022-6.443c-.857-2.189-2.5-3.954-3.887-5.827-1.5-2.037-3-4.084-4.6-6.048a2.394,2.394,0,0,0-2.908-.375c-4.517,3.316-9.082,6.568-13.63,9.84a2.467,2.467,0,0,0-.861,3.283,2.418,2.418,0,0,0,3.283.861c4.549-3.272,9.114-6.524,13.63-9.84l-2.908-.375c1.161,1.426,2.247,2.909,3.338,4.388,1.138,1.542,2.408,3.032,3.466,4.627a5.629,5.629,0,0,1,.895,2.237,3.705,3.705,0,0,1,.044.9c-.028.323-.247.818-.033.429-.277.5-.616.98-.936,1.457a104.879,104.879,0,0,1-9.317,12.039,29.335,29.335,0,0,1-6.251,5.635l3.283.861c-1.473-2.131-2.9-4.3-4.35-6.44-1.723-2.544-5.884-.144-4.144,2.422Z"/><path class="d" d="M161.93,166.631l4.955,1.939c2.571,1.006,4.294,1.827,6.85,3.076,7.726,3.776,15.221,7.749,21.591,13.605A44.652,44.652,0,0,1,207.879,205.2c2.417,7.905,2.394,16.186,1.841,24.365A134.945,134.945,0,0,1,196.4,279.2a191.13,191.13,0,0,1-13.261,22.793,113.558,113.558,0,0,1-11.688,14.866c-1.75,1.846-3.582,3.616-5.5,5.287q-1.281,1.116-2.614,2.173c-.1.077-.591.464-.446.352.129-.1-.328.251-.443.338q-.676.512-1.364,1.008c-3.223,2.33-6.622,4.392-10.037,6.423q-1.254.746-2.506,1.492c-2.648,1.586-.237,5.737,2.422,4.145,7.593-4.546,15.022-9.125,21.414-15.324,10.694-10.371,18.8-23.466,25.8-36.5a141.4,141.4,0,0,0,15.9-51.593c.916-8.5,1.338-17.406-.334-25.839a50.43,50.43,0,0,0-10.864-22.7c-5.541-6.535-12.738-11.364-20.248-15.336a127.836,127.836,0,0,0-11.883-5.83c-1.922-.772-3.859-1.51-5.788-2.265l-1.75-.685a2.419,2.419,0,0,0-2.952,1.677,2.455,2.455,0,0,0,1.676,2.952Z"/><path class="d" d="M180.043,310.076l8.2,47.655a2.42,2.42,0,0,0,2.952,1.676,2.455,2.455,0,0,0,1.677-2.952l-8.2-47.655a2.419,2.419,0,0,0-2.952-1.676,2.454,2.454,0,0,0-1.676,2.952Z"/><path class="e" d="M159.885,194.6a5.626,5.626,0,0,0-5.737,5.7,5.533,5.533,0,0,0,5.737,5.809,5.475,5.475,0,0,0,5.738-5.809A5.621,5.621,0,0,0,159.885,194.6Z"/><path class="d" d="M159.885,192.2a8.157,8.157,0,0,0-7.78,5.69,8.335,8.335,0,0,0,2.665,8.9,8.652,8.652,0,0,0,9.377.633,8.273,8.273,0,0,0,3.731-8.6,8.082,8.082,0,0,0-7.993-6.627,2.4,2.4,0,1,0,0,4.8c.167,0,.333.015.5.019.56.013-.535-.13,0,0,.253.061.506.111.755.193-.017-.006.279.11.287.1l-.294-.125c.091.041.18.085.269.131.182.094.555.44.75.469l-.256-.195q.111.093.219.192c.071.065.14.133.208.2.051.053.226.309.29.323-.213-.045-.283-.425-.069-.081.141.227.272.455.4.687s-.058.159-.062-.173a2.8,2.8,0,0,0,.191.557,3.8,3.8,0,0,0,.16.728c-.2-.347-.031-.44-.029-.11,0,.128.013.256.013.384,0,.158-.118.655-.041.781l.047-.336c-.015.1-.032.2-.052.294-.033.168-.073.333-.12.5-.033.115-.069.228-.108.341l-.049.133q-.141.357.079-.186a3.175,3.175,0,0,0-.329.6c-.059.094-.134.183-.19.28-.155.268.408-.451.081-.117a4.656,4.656,0,0,0-.578.561l.274-.209q-.109.081-.222.156c-.076.05-.153.1-.232.144-.119.07-.243.129-.364.2-.419.231.431-.123.123-.047-.256.062-.5.171-.76.232-.1.022-.2.038-.291.06-.26.043-.2.036.185-.019-.1.011-.207.02-.31.027a7.047,7.047,0,0,1-.8.009,1.757,1.757,0,0,0-.462-.037c.049-.022.594.114.191.018-.262-.063-.522-.117-.779-.2a2.163,2.163,0,0,0-.336-.124q.531.229.187.069c-.063-.031-.125-.064-.186-.1-.218-.119-.419-.307-.64-.411.425.2.314.262.165.115-.1-.1-.2-.185-.3-.284-.077-.08-.146-.182-.23-.255-.233-.2.334.5.079.1-.152-.238-.289-.478-.427-.724-.248-.444.174.536.016.046-.03-.092-.065-.183-.094-.276-.049-.154-.1-.792-.207-.876.034.027.05.616.028.175-.009-.16-.024-.319-.027-.479q0-.2,0-.393,0-.114.012-.228c.027-.264.015-.2-.034.189a5.3,5.3,0,0,0,.2-.867,1.794,1.794,0,0,0,.149-.414c.014.224-.209.446,0,.044a4.64,4.64,0,0,0,.463-.735l-.2.258c.062-.075.126-.148.191-.219.1-.106.2-.209.307-.308l.108-.1q.291-.243-.145.1a2.2,2.2,0,0,0,.363-.25q.189-.118.386-.221c.508-.265.042.05-.025-.007a7.452,7.452,0,0,0,.889-.267l.156-.031q.395-.065-.16.016a3.106,3.106,0,0,1,.664-.034,2.4,2.4,0,0,0,0-4.8Z"/><path class="a" d="M118.061,355.232c.14,2.9.26,4.533.26,6.267"/><path class="a" d="M46.454,114.558c-.7-.039-1.35-.061-1.918-.078a37.033,37.033,0,0,0-18.99,4.388,23.384,23.384,0,0,0-7.377,6.525c-2.048,2.882-3.245,10.428-2.935,12.708a.737.737,0,0,1-.012.11h6.667c.156,1.088.333,2.236.531,3.489.209,1.325,1.814,4.3,3.493,4.94,2.373.9,4.264.988,5.955-.8l.992-1.05a14.062,14.062,0,0,0,1.093,3.154,4.874,4.874,0,0,0,4.551,2.763,5.58,5.58,0,0,0,5.138-2.6l.458-.811a5.473,5.473,0,0,0,5.838,3.794,4.348,4.348,0,0,0,3.634-2.484,7.144,7.144,0,0,0,.7-2.3l.07.055c1.936,1.537,5.774,1.483,8.049.28s2.94-3.146,3.146-5.442a24.7,24.7,0,0,0,.067-5.122,59.522,59.522,0,0,0-1.345-10.514c-1.777-4.1-1.647-4.588-5.533-7.467C55.08,115.394,50.033,114.755,46.454,114.558Z"/><path class="a" d="M129.141,138.741v-.53H2.4V361.264H129.141Z"/><path class="d" d="M21.89,135.812H2.4a2.435,2.435,0,0,0-2.4,2.4v223.05a2.435,2.435,0,0,0,2.4,2.4H73.39c3.089,0,3.094-4.8,0-4.8H2.4l2.4,2.4V138.212l-2.4,2.4H21.89c3.089,0,3.094-4.8,0-4.8Z"/><path class="d" d="M65.7,140.612h63.44l-2.4-2.4v223.05l2.4-2.4H118.3c-3.089,0-3.094,4.8,0,4.8h10.84a2.435,2.435,0,0,0,2.4-2.4V138.212a2.435,2.435,0,0,0-2.4-2.4H65.7c-3.089,0-3.094,4.8,0,4.8Z"/><path class="a" d="M73.731,354.193c.4-1.554,1.423-3.737,2.71-4.428,2.285-1.227,4.191-1.564,6.14.026l1.144.932a14.451,14.451,0,0,1,.691-3.34,4.985,4.985,0,0,1,4.248-3.4,5.706,5.706,0,0,1,5.551,1.959s.348.465.785,1.056c-.435,3.5-.886-3.466,5.2-3.848a4.443,4.443,0,0,1,4.011,2.038,7.433,7.433,0,0,1,1.017,2.237c.036-.041.058-.064.058-.064,1.76-1.814,5.656-2.265,8.121-1.347s3.394,2.8,3.907,5.1a25.325,25.325,0,0,1,.745,5.183c.128,2.641.238,4.23.257,5.8-.015,1.11-.079,2.32-.215,3.965-1.219,4.383-1.026,4.864-4.489,8.285-3.887,3.839-7.18,4.433-10.585,4.986a35.43,35.43,0,0,1-18.957-1.953,19.357,19.357,0,0,1-7.754-5.867c-2.405-3.56-3-9.45-2.993-11.8.007-1.418.137-2.684.227-4.48A5.488,5.488,0,0,1,73.731,354.193Z"/><path class="d" d="M107.957,362.98c.025-3.729.194-7.457.16-11.187s-.709-7.89-4.1-10.059c-2.874-1.837-7.015-1-9.358,1.338a8.005,8.005,0,0,0-2.289,5.938c-.029,4.662-.019,9.324-.053,13.986-.023,3.089,4.777,3.092,4.8,0,.026-3.533.027-7.066.038-10.6q0-1.32.011-2.641,0-.651.007-1.3c0-.178.086-.981-.023-.4s.066-.166.111-.325c.03-.1.22-.567.065-.208s.118-.216.183-.331c.1-.173.211-.336.32-.5-.228.348-.072.081.09-.083.059-.059.525-.5.342-.346-.126.1.411-.258.561-.341a3.566,3.566,0,0,1,2.339-.277,2.438,2.438,0,0,1,.99.767,4.7,4.7,0,0,1,.755,1.605,14.729,14.729,0,0,1,.418,4.134c.02,3.612-.138,7.222-.163,10.834-.021,3.089,4.779,3.093,4.8,0Z"/><path class="d" d="M83.793,347.718c-3.908-2.964-9.471-.768-11.45,3.382-1.564,3.281-1.64,7.3-1.3,10.877.383,3.986,1.256,8.3,3.775,11.518,2.714,3.472,6.881,5.782,11.027,7.085a37.646,37.646,0,0,0,13.9,1.54c4.174-.3,8.62-.987,12.186-3.326,3.112-2.041,6.25-5.02,7.5-8.609,1.336-3.824,1.351-7.7,1.142-11.691-.222-4.25-.208-10.094-3.7-13.169-3.53-3.1-9.895-2.9-13.277.337-2.236,2.141,1.161,5.532,3.394,3.394,1.579-1.511,5.424-1.662,6.937.092a7.93,7.93,0,0,1,1.3,3.583,31.5,31.5,0,0,1,.513,4.945c.171,3.3.4,6.532-.483,9.743-.157.573-.317,1.146-.521,1.705-.008.024-.147.364-.043.122.113-.261-.073.149-.1.205-.146.26-.287.515-.45.765a20.813,20.813,0,0,1-3.085,3.251c-2.461,2.178-5.324,3.013-8.5,3.528a34.2,34.2,0,0,1-11.713-.119A23.812,23.812,0,0,1,81.5,373.2a12.089,12.089,0,0,1-5.04-7.647c-.812-3.337-.641-6.416-.534-9.84,0-.074.074-.858-.014-.256a4.775,4.775,0,0,1,.1-.49,10.036,10.036,0,0,1,.345-1.123,6.117,6.117,0,0,1,.944-1.7,4.035,4.035,0,0,1,1.89-.939,2.358,2.358,0,0,1,2.179.657A2.415,2.415,0,0,0,84.654,351a2.46,2.46,0,0,0-.861-3.284Z"/><path class="d" d="M95.912,344.243c-3.443-4.326-11.253-3.4-13.473,1.67-1.128,2.575-1.166,5.349-1.155,8.109.011,2.956.063,5.913.193,8.867a2.45,2.45,0,0,0,2.4,2.4,2.424,2.424,0,0,0,2.4-2.4c-.11-2.5-.165-5.008-.185-7.514a26.954,26.954,0,0,1,.228-5.865,9.944,9.944,0,0,1,.41-1.489c-.08.207.189-.385.193-.394.032-.054.367-.523.234-.365s.26-.247.3-.284c-.27.251.232-.157.279-.185a1.9,1.9,0,0,1,.792-.327,3.475,3.475,0,0,1,3.99,1.171,2.415,2.415,0,0,0,3.394,0,2.459,2.459,0,0,0,0-3.394Z"/><path class="d" d="M50.312,131.806c.418,3.043.944,6.069,1.348,9.114.293,2.2.93,5.611-.685,7.23a1.505,1.505,0,0,1-.864.493,1.7,1.7,0,0,1-.62.059c-.13,0-.847-.061-.583-.017a5.185,5.185,0,0,1-.822-.218c-.267-.092.005.007.05.028-.1-.046-.2-.095-.289-.15-.141-.083-.634-.427-.276-.139a6.7,6.7,0,0,1-.549-.516c-.183-.184-.291-.389-.064-.048-.1-.151-.2-.3-.3-.455-.07-.119-.127-.246-.2-.364-.248-.413.046.463.023.061-.059-.995-.335-2.067-.469-3.064-.535-3.978-1.05-7.958-1.6-11.934a2.414,2.414,0,0,0-2.952-1.677,2.465,2.465,0,0,0-1.676,2.953c.553,4.013,1.072,8.031,1.614,12.046a12.837,12.837,0,0,0,.788,3.763,7.662,7.662,0,0,0,1.7,2.376,7.965,7.965,0,0,0,9.052,1.292c3.36-1.87,4.112-6.116,3.773-9.624-.405-4.182-1.2-8.325-1.772-12.485a2.414,2.414,0,0,0-2.952-1.676,2.465,2.465,0,0,0-1.677,2.952Z"/><path class="d" d="M30.171,144.142c-.035.036-.46.423-.456.433q.441-.327.137-.106l-.118.08a2.909,2.909,0,0,0-.478.269q.556-.224.206-.09l-.124.041c-.159.05-.355.059-.506.123.424-.051.507-.063.249-.038l-.132.008a5.082,5.082,0,0,1-.538-.006c-.092-.006-.183-.015-.275-.025l.358.047a5.572,5.572,0,0,0-1.019-.238c-.205-.06-.408-.127-.61-.2-.1-.037-.21-.076-.314-.115l.377.156c-.046.028-.346-.2-.391-.23-.369-.228.4.367.1.076a9.081,9.081,0,0,1-.68-.707c-.369-.445.258.384,0,0-.09-.135-.185-.266-.272-.4q-.259-.4-.48-.824c-.071-.134-.138-.27-.2-.407-.035-.075-.07-.151-.1-.227q.231.556.127.3c-.077-.234-.171-.459-.232-.7-.186-.732-.254-1.511-.368-2.257q-.189-1.242-.36-2.487a2.39,2.39,0,0,0-1.1-1.435,2.451,2.451,0,0,0-1.85-.241,2.421,2.421,0,0,0-1.434,1.1,2.84,2.84,0,0,0-.242,1.85c.2,1.483.4,2.976.664,4.449a9.407,9.407,0,0,0,1.327,3.125,8.7,8.7,0,0,0,2.926,3.086,9.434,9.434,0,0,0,4.391,1.117,6.715,6.715,0,0,0,4.816-2.13,2.4,2.4,0,0,0-3.394-3.394Z"/><path class="d" d="M41.57,146.893a2.1,2.1,0,0,1-.76.854c.281-.208-.354.182-.344.176-.487.292.2-.008-.348.154-.244.072-.486.138-.734.193-.445.1.123.047-.371.035-.211,0-.422.006-.635,0-.124-.006-.248-.015-.373-.028.2.028.212.027.043,0-.229-.047-.451-.107-.674-.175q-.242-.087.048.038a3.339,3.339,0,0,1-.3-.152,4.3,4.3,0,0,1-.469-.3c.356.279-.122-.16-.187-.226-.31-.317,0,.1-.2-.279-.122-.232-.252-.452-.363-.69a10.557,10.557,0,0,1-.47-1.317,14.658,14.658,0,0,1-.389-1.68c.057.323,0,.021-.02-.139-.03-.223-.058-.446-.087-.668q-.222-1.687-.45-3.374c-.321-2.372-.657-4.742-1.046-7.1a2.418,2.418,0,0,0-2.953-1.676,2.458,2.458,0,0,0-1.676,2.952c.429,2.6.83,5.463,1.144,7.835.361,2.717.653,5.354,1.919,7.837,2.719,5.328,10.859,5.108,13.834.161,1.6-2.654-2.552-5.07-4.144-2.423Z"/><path class="d" d="M17.634,138.1a19.1,19.1,0,0,1,.748-6.623,13.1,13.1,0,0,1,3.465-6.734c4.54-4.7,11.412-7.156,17.836-7.729,5.865-.524,13.079-.363,18,3.275a15.735,15.735,0,0,1,2.464,2.189,16.2,16.2,0,0,1,1.3,2.563,24.164,24.164,0,0,1,1.5,7.845c.155,1.924.386,3.865.349,5.8a11.32,11.32,0,0,1-.622,4.435c-1.121,2.394-5.215,2.569-7.128,1.166a2.418,2.418,0,0,0-3.284.861,2.456,2.456,0,0,0,.861,3.284c2.938,2.154,7.767,1.931,10.8.095,3.506-2.122,4.1-6.065,4.171-9.841a59.524,59.524,0,0,0-.929-10.727,18.643,18.643,0,0,0-3.512-8.715,19.277,19.277,0,0,0-8.847-5.718,36.892,36.892,0,0,0-10.278-1.444,40.085,40.085,0,0,0-12.476,1.549A32.724,32.724,0,0,0,21.574,118.6a19.521,19.521,0,0,0-7.305,9.714,33.794,33.794,0,0,0-1.147,5.234,17.976,17.976,0,0,0-.288,4.558,2.473,2.473,0,0,0,2.4,2.4,2.415,2.415,0,0,0,2.4-2.4Z"/></svg>