<svg width="24px" height="24px" viewBox="0 0 24 24" fill="none" xmlns="http://www.w3.org/2000/svg">
<path d="M9.00903 17.9034L9.09282 17.1581L8.19549 17.0573L8.26101 17.9579L9.00903 17.9034ZM14.9908 17.9034L15.7389 17.9579L15.8044 17.0573L14.907 17.1581L14.9908 17.9034ZM14.9001 18.4773L15.6284 18.6563V18.6563L14.9001 18.4773ZM14.8181 18.8106L14.0898 18.6315L14.0898 18.6315L14.8181 18.8106ZM12.7038 20.917L12.8783 21.6464H12.8783L12.7038 20.917ZM11.2961 20.917L11.1216 21.6464H11.1216L11.2961 20.917ZM9.18175 18.8106L9.91006 18.6315L9.91006 18.6315L9.18175 18.8106ZM9.09978 18.4773L8.37148 18.6563L8.37148 18.6563L9.09978 18.4773ZM8.92524 18.6487C10.9686 18.8785 13.0312 18.8785 15.0746 18.6487L14.907 17.1581C12.975 17.3753 11.0248 17.3753 9.09282 17.1581L8.92524 18.6487ZM15.6284 18.6563C15.6848 18.4269 15.7217 18.1932 15.7389 17.9579L14.2428 17.849C14.2318 18.0004 14.208 18.1506 14.1718 18.2982L15.6284 18.6563ZM15.5464 18.9897L15.6284 18.6563L14.1718 18.2982L14.0898 18.6315L15.5464 18.9897ZM12.8783 21.6464C14.1944 21.3316 15.2229 20.3053 15.5464 18.9897L14.0898 18.6315C13.8997 19.4047 13.2964 20.0041 12.5293 20.1876L12.8783 21.6464ZM11.1216 21.6464C11.6991 21.7846 12.3008 21.7846 12.8783 21.6464L12.5293 20.1876C12.1812 20.2709 11.8186 20.2709 11.4705 20.1876L11.1216 21.6464ZM8.45345 18.9897C8.77694 20.3053 9.80543 21.3316 11.1216 21.6464L11.4705 20.1876C10.7034 20.0041 10.1002 19.4047 9.91006 18.6315L8.45345 18.9897ZM8.37148 18.6563L8.45345 18.9897L9.91006 18.6315L9.82809 18.2982L8.37148 18.6563ZM8.26101 17.9579C8.27813 18.1932 8.31506 18.4269 8.37148 18.6563L9.82809 18.2982C9.79181 18.1506 9.76807 18.0004 9.75706 17.849L8.26101 17.9579Z" fill="#0095FF"/>
<path d="M12.75 3C12.75 2.58579 12.4142 2.25 12 2.25C11.5858 2.25 11.25 2.58579 11.25 3H12.75ZM11.25 4.00474C11.25 4.41895 11.5858 4.75474 12 4.75474C12.4142 4.75474 12.75 4.41895 12.75 4.00474H11.25ZM11.25 3V4.00474H12.75V3H11.25Z" fill="#0095FF"/>
<path d="M6.0278 8.63262L6.7517 8.82876L6.7517 8.82876L6.0278 8.63262ZM10.1584 4.30225L9.92711 3.5888V3.5888L10.1584 4.30225ZM5.98297 8.79807L5.25907 8.60193L5.25907 8.60193L5.98297 8.79807ZM5.78956 12.8675L6.5288 12.7409V12.7409L5.78956 12.8675ZM5.81207 12.9989L5.07282 13.1255L5.07282 13.1255L5.81207 12.9989ZM6.28759 17.4572L6.43731 16.7223L6.43731 16.7223L6.28759 17.4572ZM6.65518 17.5321L6.50547 18.267L6.50547 18.267L6.65518 17.5321ZM17.3448 17.5321L17.4945 18.267V18.267L17.3448 17.5321ZM17.7124 17.4572L17.5627 16.7223L17.5627 16.7223L17.7124 17.4572ZM18.1922 12.9737L18.9315 13.1003V13.1003L18.1922 12.9737ZM18.2161 12.8343L17.4769 12.7077V12.7077L18.2161 12.8343ZM18.0417 8.82627L17.3163 9.0166V9.0166L18.0417 8.82627ZM17.9793 8.58838L18.7047 8.39805V8.39805L17.9793 8.58838ZM13.9671 4.3084L14.2023 3.59624V3.59624L13.9671 4.3084ZM18.353 13.3008L17.9868 13.9553L18.353 13.3008ZM5.66797 13.2892L6.02714 13.9476L5.66797 13.2892ZM6.7517 8.82876C7.23925 7.02934 8.62052 5.58918 10.3896 5.01571L9.92711 3.5888C7.67951 4.31737 5.92499 6.14419 5.3039 8.43648L6.7517 8.82876ZM6.70687 8.99421L6.7517 8.82876L5.3039 8.43648L5.25907 8.60193L6.70687 8.99421ZM6.5288 12.7409C6.3153 11.4939 6.37608 10.215 6.70687 8.99421L5.25907 8.60193C4.87128 10.0332 4.80004 11.5323 5.05032 12.994L6.5288 12.7409ZM6.55131 12.8723L6.5288 12.7409L5.05032 12.994L5.07282 13.1255L6.55131 12.8723ZM5.25 15.2604C5.25 14.6932 5.56385 14.2004 6.02714 13.9476L5.3088 12.6308C4.38074 13.1371 3.75 14.1251 3.75 15.2604H5.25ZM6.43731 16.7223C5.74893 16.5821 5.25 15.9725 5.25 15.2604H3.75C3.75 16.6808 4.74616 17.9086 6.13787 18.1921L6.43731 16.7223ZM6.8049 16.7972L6.43731 16.7223L6.13787 18.1921L6.50547 18.267L6.8049 16.7972ZM17.1951 16.7972C13.7666 17.4956 10.2334 17.4956 6.8049 16.7972L6.50547 18.267C10.1316 19.0057 13.8684 19.0057 17.4945 18.267L17.1951 16.7972ZM17.5627 16.7223L17.1951 16.7972L17.4945 18.267L17.8621 18.1921L17.5627 16.7223ZM18.75 15.2604C18.75 15.9725 18.2511 16.5821 17.5627 16.7223L17.8621 18.1921C19.2538 17.9086 20.25 16.6808 20.25 15.2604H18.75ZM17.9868 13.9553C18.4425 14.2103 18.75 14.6989 18.75 15.2604H20.25C20.25 14.1365 19.6319 13.157 18.7192 12.6463L17.9868 13.9553ZM17.4769 12.7077L17.453 12.8471L18.9315 13.1003L18.9554 12.9609L17.4769 12.7077ZM17.3163 9.0166C17.6323 10.2212 17.6871 11.48 17.4769 12.7077L18.9554 12.9609C19.2017 11.5223 19.1375 10.0474 18.7672 8.63594L17.3163 9.0166ZM17.2539 8.77871L17.3163 9.0166L18.7672 8.63594L18.7047 8.39805L17.2539 8.77871ZM13.7319 5.02057C15.4622 5.59203 16.7887 7.00577 17.2539 8.77871L18.7047 8.39805C18.1113 6.13597 16.4174 4.32782 14.2023 3.59624L13.7319 5.02057ZM10.3896 5.01571C11.474 4.66421 12.6528 4.6642 13.7319 5.02057L14.2023 3.59624C12.8171 3.13875 11.3114 3.14007 9.92711 3.5888L10.3896 5.01571ZM18.7192 12.6463C18.8626 12.7265 18.966 12.8988 18.9315 13.1003L17.453 12.8471C17.3735 13.3114 17.6116 13.7453 17.9868 13.9553L18.7192 12.6463ZM5.07282 13.1255C5.03579 12.9092 5.14712 12.719 5.3088 12.6308L6.02714 13.9476C6.39669 13.746 6.62845 13.3229 6.55131 12.8723L5.07282 13.1255Z" fill="#363853"/>
</svg>
