<?xml version="1.0" encoding="utf-8"?>

<!DOCTYPE svg PUBLIC "-//W3C//DTD SVG 1.1//EN" "http://www.w3.org/Graphics/SVG/1.1/DTD/svg11.dtd">
<!-- Uploaded to: SVG Repo, www.svgrepo.com, Generator: SVG Repo Mixer Tools -->
<svg height="800px" width="800px" version="1.1" id="_x32_" xmlns="http://www.w3.org/2000/svg" xmlns:xlink="http://www.w3.org/1999/xlink" 
	 viewBox="0 0 512 512"  xml:space="preserve">
<style type="text/css">
	.st0{fill:#000000;}
</style>
<g>
	<path class="st0" d="M192.167,96.435c26.634,0,48.212-21.596,48.212-48.213C240.38,21.578,218.802,0,192.167,0
		c-26.644,0-48.223,21.578-48.223,48.222C143.945,74.839,165.523,96.435,192.167,96.435z"/>
	<path class="st0" d="M357.825,243.309c5.778,0,10.465-4.687,10.465-10.464v-21.759c0-5.777-4.687-10.465-10.465-10.465H307.44
		c-3.749,0-7.21-2.009-9.086-5.264l-15.629-27.292c-12.502-22.822-25.418-48.79-48.781-48.79h-42.274h-42.272
		c-23.364,0-48.781,25.418-48.781,48.79v162.062c0,11.681,9.464,21.155,21.145,21.155c5.751,0,0,0,14.764,0l8.04,138.212
		c0,12.43,10.086,22.507,22.516,22.507c5.245,0,14.917,0,24.588,0c9.672,0,19.344,0,24.589,0c12.43,0,22.516-10.077,22.516-22.507
		l8.04-138.212l4.182-144.116l27.635,32.467c1.984,2.334,4.895,3.677,7.968,3.677H357.825z"/>
	<path class="st0" d="M314.975,279.453c0,18.424,14.936,33.368,33.376,33.368c18.442,0,33.377-14.944,33.377-33.368
		c0-18.451-14.935-33.386-33.377-33.386C329.911,246.067,314.975,261.002,314.975,279.453z"/>
	<path class="st0" d="M377.618,323.204h-29.267h-29.266c-16.17,0-33.764,17.594-33.764,33.782v56.803
		c0,8.085,6.553,14.648,14.638,14.648c3.984,0,0,0,10.221,0l5.561,67.988c0,8.598,6.986,15.575,15.594,15.575
		c3.624,0,10.32,0,17.017,0c6.697,0,13.394,0,17.018,0c8.608,0,15.593-6.977,15.593-15.575l5.562-67.988c10.221,0,6.237,0,10.221,0
		c8.085,0,14.638-6.562,14.638-14.648v-56.803C411.383,340.798,393.789,323.204,377.618,323.204z"/>
</g>
</svg>